<svg xmlns="http://www.w3.org/2000/svg" width="92" height="92" viewBox="0 0 92 92" fill="none"><rect width="92" height="92" rx="46" fill="#F8C0C1"></rect><path d="M28.7798 74.1652H28C25.1716 74.1652 23.7574 74.1652 22.8787 73.2865C22 72.4078 22 70.9936 22 68.1652V64.8293C22 63.2738 22 62.496 22.3995 61.8015C22.7991 61.1069 23.4018 60.7563 24.6073 60.0552C32.5437 55.4393 43.8146 52.8409 51.3372 57.3277C51.8426 57.6292 52.2972 57.993 52.6856 58.4294C54.3599 60.31 54.2379 63.1483 52.3083 64.8325C51.9008 65.1881 51.4665 65.4579 51.0291 65.5516C51.3885 65.5099 51.733 65.4622 52.0617 65.4097C54.7959 64.9736 57.0911 63.5125 59.1923 61.9253L64.6139 57.8298C66.5252 56.386 69.3619 56.3857 71.2736 57.8291C72.9946 59.1286 73.5208 61.2682 72.4328 63.0122C71.1639 65.046 69.3763 67.6479 67.6598 69.2377C65.9408 70.8298 63.3816 72.2512 61.2924 73.2596C58.9781 74.3766 56.4214 75.0203 53.8208 75.4413C48.5465 76.295 43.0497 76.1647 37.829 75.0891C34.8776 74.4811 31.8124 74.1652 28.7798 74.1652Z" fill="#E26E6A"></path><path d="M42.5838 20.0901C44.1038 17.3634 44.8638 16 46 16C47.1362 16 47.8962 17.3633 49.4162 20.09L49.8094 20.7955C50.2414 21.5703 50.4573 21.9577 50.7941 22.2134C51.1308 22.469 51.5502 22.5639 52.3889 22.7537L53.1526 22.9264C56.1042 23.5943 57.58 23.9282 57.9311 25.0573C58.2822 26.1864 57.2761 27.3629 55.2639 29.7159L54.7433 30.3247C54.1715 30.9933 53.8856 31.3277 53.757 31.7413C53.6283 32.1549 53.6716 32.6009 53.758 33.4931L53.8367 34.3053C54.1409 37.4447 54.2931 39.0144 53.3738 39.7123C52.4546 40.4101 51.0728 39.7739 48.3092 38.5014L47.5942 38.1722C46.8089 37.8106 46.4162 37.6298 46 37.6298C45.5838 37.6298 45.1911 37.8106 44.4058 38.1722L43.6908 38.5014C40.9272 39.7739 39.5454 40.4101 38.6262 39.7123C37.7069 39.0144 37.8591 37.4447 38.1633 34.3053L38.242 33.4931C38.3284 32.6009 38.3717 32.1549 38.243 31.7413C38.1144 31.3277 37.8285 30.9933 37.2567 30.3247L36.7361 29.7159C34.7239 27.3629 33.7178 26.1864 34.0689 25.0573C34.42 23.9282 35.8958 23.5943 38.8474 22.9264L39.6111 22.7537C40.4498 22.5639 40.8692 22.469 41.2059 22.2134C41.5427 21.9577 41.7586 21.5703 42.1906 20.7955L42.5838 20.0901Z" fill="#E26E6A"></path><path d="M68.2919 33.045C69.0519 31.6817 69.4319 31 70 31C70.5681 31 70.9481 31.6817 71.7081 33.045L71.9047 33.3977C72.1207 33.7852 72.2287 33.9789 72.397 34.1067C72.5654 34.2345 72.7751 34.2819 73.1945 34.3768L73.5763 34.4632C75.0521 34.7971 75.79 34.9641 75.9655 35.5286C76.1411 36.0932 75.6381 36.6814 74.6319 37.858L74.3716 38.1623C74.0857 38.4967 73.9428 38.6638 73.8785 38.8706C73.8142 39.0774 73.8358 39.3005 73.879 39.7465L73.9184 40.1526C74.0705 41.7224 74.1465 42.5072 73.6869 42.8561C73.2273 43.205 72.5364 42.8869 71.1546 42.2507L70.7971 42.0861C70.4044 41.9053 70.2081 41.8149 70 41.8149C69.7919 41.8149 69.5956 41.9053 69.2029 42.0861L68.8454 42.2507C67.4636 42.8869 66.7727 43.205 66.3131 42.8561C65.8535 42.5072 65.9295 41.7224 66.0816 40.1526L66.121 39.7465C66.1642 39.3005 66.1858 39.0774 66.1215 38.8706C66.0572 38.6638 65.9143 38.4967 65.6284 38.1623L65.3681 37.858C64.362 36.6814 63.8589 36.0932 64.0345 35.5286C64.21 34.9641 64.9479 34.7971 66.4237 34.4632L66.8055 34.3768C67.2249 34.2819 67.4346 34.2345 67.603 34.1067C67.7713 33.9789 67.8793 33.7852 68.0953 33.3977L68.2919 33.045Z" fill="#E26E6A"></path><path d="M20.2919 33.045C21.0519 31.6817 21.4319 31 22 31C22.5681 31 22.9481 31.6817 23.7081 33.045L23.9047 33.3977C24.1207 33.7852 24.2287 33.9789 24.397 34.1067C24.5654 34.2345 24.7751 34.2819 25.1945 34.3768L25.5763 34.4632C27.0521 34.7971 27.79 34.9641 27.9655 35.5286C28.1411 36.0932 27.6381 36.6814 26.6319 37.858L26.3716 38.1623C26.0857 38.4967 25.9428 38.6638 25.8785 38.8706C25.8142 39.0774 25.8358 39.3005 25.879 39.7465L25.9184 40.1526C26.0705 41.7224 26.1465 42.5072 25.6869 42.8561C25.2273 43.205 24.5364 42.8869 23.1546 42.2507L22.7971 42.0861C22.4044 41.9053 22.2081 41.8149 22 41.8149C21.7919 41.8149 21.5956 41.9053 21.2029 42.0861L20.8454 42.2507C19.4636 42.8869 18.7727 43.205 18.3131 42.8561C17.8535 42.5072 17.9295 41.7224 18.0816 40.1526L18.121 39.7465C18.1642 39.3005 18.1858 39.0774 18.1215 38.8706C18.0572 38.6638 17.9143 38.4967 17.6284 38.1623L17.3681 37.858C16.3619 36.6814 15.8589 36.0932 16.0345 35.5286C16.21 34.9641 16.9479 34.7971 18.4237 34.4632L18.8055 34.3768C19.2249 34.2819 19.4346 34.2345 19.603 34.1067C19.7713 33.9789 19.8793 33.7852 20.0953 33.3977L20.2919 33.045Z" fill="#E26E6A"></path></svg>