<svg xmlns="http://www.w3.org/2000/svg" width="92" height="92" viewBox="0 0 92 92" fill="none"><rect width="92" height="92" rx="46" fill="none"></rect><path fill-rule="evenodd" clip-rule="evenodd" d="M32.6143 29.9995H25.6667C21.9848 29.9995 19 32.9843 19 36.6662V38.1134L40.7991 46.2063C42.0343 46.6649 43.341 46.8996 44.6582 46.8996H47.3418C48.659 46.8996 49.9657 46.6649 51.2009 46.2063L73 38.1134V36.6662C73 32.9843 70.0152 29.9995 66.3333 29.9995H59.3859C58.0798 25.3828 53.835 22 48.8001 22H43.2001C38.1651 22 33.9203 25.3828 32.6143 29.9995ZM39.2001 29.9995H52.8001C51.8878 28.7853 50.4357 28 48.8001 28H43.2001C41.5645 28 40.1123 28.7853 39.2001 29.9995ZM49 38.5C49 36.8431 47.6569 35.5 46 35.5C44.3431 35.5 43 36.8431 43 38.5V41.1667C43 42.8235 44.3431 44.1667 46 44.1667C47.6569 44.1667 49 42.8235 49 41.1667V38.5Z" fill="#ffff"></path><path d="M23.5806 61.9065L21.7001 43.3333L41.7874 50.773C42.7879 51.1435 43.8463 51.3333 44.9132 51.3333H47.0869C48.1539 51.3333 49.2123 51.1435 50.2128 50.773L70.3001 43.3333L68.4195 61.9065C67.9542 66.5025 64.0848 69.9999 59.4653 69.9999H32.5348C27.9153 69.9999 24.046 66.5025 23.5806 61.9065Z" fill="#ffff"></path></svg>