<svg xmlns="http://www.w3.org/2000/svg" width="24" height="25" viewBox="0 0 24 25" fill="none"><path d="M12 2.146C6.48 2.146 2 6.626 2 12.146C2 17.666 6.48 22.146 12 22.146C17.52 22.146 22 17.666 22 12.146C22 6.626 17.52 2.146 12 2.146ZM6.85 9.586C7.27 8.616 8.06 7.866 9.15 7.526V6.726C9.15 6.316 9.49 5.976 9.9 5.976C10.31 5.976 10.65 6.316 10.65 6.726V7.316H13.36V6.726C13.36 6.316 13.7 5.976 14.11 5.976C14.52 5.976 14.86 6.316 14.86 6.726V7.516C15.95 7.856 16.74 8.606 17.16 9.576C17.3 9.906 17.06 10.286 16.7 10.286H7.31C6.95 10.286 6.71 9.916 6.85 9.586ZM17.5 14.316C17.5 16.516 16 18.316 13.5 18.316H10.5C8 18.316 6.5 16.516 6.5 14.316V11.786C6.5 11.506 6.72 11.286 7 11.286H17C17.28 11.286 17.5 11.506 17.5 11.786V14.316Z" fill="#B2B2B2"></path></svg>