<svg xmlns="http://www.w3.org/2000/svg" width="92" height="92" viewBox="0 0 92 92" fill="none"><rect width="92" height="92" rx="46" fill="none"></rect><path d="M46.3613 28.2525L36.0763 36.5825C34.3656 37.9638 34.0363 40.45 35.3325 42.2244C36.7031 44.1156 39.37 44.4875 41.2081 43.0531L51.7588 34.8506C52.5025 34.2769 53.565 34.4044 54.1494 35.1481C54.7338 35.8919 54.5956 36.9544 53.8519 37.5388L51.6313 39.26L70.4588 56.6H74.9C77.7156 56.6 80 54.3156 80 51.5V37.9C80 35.0844 77.7156 32.8 74.9 32.8H66.3256L65.9113 32.5344L58.1975 27.5938C56.5719 26.5525 54.67 26 52.7363 26C50.42 26 48.1675 26.7969 46.3613 28.2525ZM48.7838 41.47L43.2906 45.7413C39.9438 48.355 35.0881 47.675 32.5806 44.2325C30.2219 40.9919 30.8169 36.4656 33.93 33.9475L42.77 26.7969C41.5375 26.2763 40.2094 26.0106 38.86 26.0106C36.8625 26 34.9181 26.595 33.25 27.7L25.6 32.8H17.1C14.2844 32.8 12 35.0844 12 37.9V51.5C12 54.3156 14.2844 56.6 17.1 56.6H28.5963L38.3075 65.4613C40.39 67.3631 43.6094 67.2144 45.5113 65.1319C46.0956 64.4838 46.4888 63.7294 46.6906 62.9431L48.4969 64.6006C50.5688 66.5025 53.7987 66.3644 55.7006 64.2925C56.1787 63.7719 56.5294 63.1663 56.7525 62.5394C58.8138 63.9206 61.6188 63.6338 63.3506 61.7425C65.2525 59.6706 65.1144 56.4406 63.0425 54.5388L48.7838 41.47Z" fill="#ffff"></path></svg>