<svg xmlns="http://www.w3.org/2000/svg" width="92" height="93" viewBox="0 0 92 93" fill="none"><rect y="0.199951" width="92" height="92" rx="46" fill="none"></rect><path d="M62.5872 33.51C62.3772 33.48 62.1672 33.48 61.9572 33.51C57.3072 33.36 53.6172 29.55 53.6172 24.87C53.6172 20.1 57.4872 16.2 62.2872 16.2C67.0572 16.2 70.9572 20.07 70.9572 24.87C70.9272 29.55 67.2372 33.36 62.5872 33.51Z" fill="#ffff"></path><path d="M72.3747 54.3012C69.0147 56.5512 64.3047 57.3912 59.9547 56.8212C61.0947 54.3612 61.6947 51.6312 61.7247 48.7512C61.7247 45.7512 61.0647 42.9012 59.8047 40.4112C64.2447 39.8112 68.9547 40.6512 72.3447 42.9012C77.0847 46.0212 77.0847 51.1512 72.3747 54.3012Z" fill="#ffff"></path><path d="M29.3205 33.51C29.5305 33.48 29.7405 33.48 29.9505 33.51C34.6005 33.36 38.2905 29.55 38.2905 24.87C38.2905 20.07 34.4205 16.2 29.6205 16.2C24.8505 16.2 20.9805 20.07 20.9805 24.87C20.9805 29.55 24.6705 33.36 29.3205 33.51Z" fill="#ffff"></path><path d="M29.6533 48.7488C29.6533 51.6588 30.2833 54.4188 31.4233 56.9088C27.1933 57.3588 22.7833 56.4588 19.5433 54.3288C14.8033 51.1788 14.8033 46.0488 19.5433 42.8988C22.7533 40.7388 27.2833 39.8688 31.5433 40.3488C30.3133 42.8688 29.6533 45.7188 29.6533 48.7488Z" fill="#ffff"></path><path d="M46.3623 57.81C46.1223 57.78 45.8523 57.78 45.5823 57.81C40.0623 57.63 35.6523 53.1 35.6523 47.52C35.6823 41.82 40.2723 37.2 46.0023 37.2C51.7023 37.2 56.3223 41.82 56.3223 47.52C56.2923 53.1 51.9123 57.63 46.3623 57.81Z" fill="#ffff"></path><path d="M36.6123 64.0189C32.0823 67.0489 32.0823 72.0289 36.6123 75.0289C41.7723 78.4789 50.2323 78.4789 55.3923 75.0289C59.9223 71.9989 59.9223 67.0189 55.3923 64.0189C50.2623 60.5689 41.8023 60.5689 36.6123 64.0189Z" fill="#ffff"></path></svg>