<?xml version="1.0" encoding="utf-8"?>
<!-- Generator: Adobe Illustrator 24.1.3, SVG Export Plug-In . SVG Version: 6.00 Build 0)  -->
<svg version="1.1" id="Layer_1" xmlns="http://www.w3.org/2000/svg" xmlns:xlink="http://www.w3.org/1999/xlink" x="0px" y="0px"
	 viewBox="0 0 626.01 95.61" style="enable-background:new 0 0 626.01 95.61;" xml:space="preserve">
<style type="text/css">
	.st0{fill:#FFFFFF;}
	.st1{fill:#0063E7;}
</style>
<g>
	<path class="st1" d="M133.26,22.12L89.5,3.48C78.66-1.14,66.21-1.16,55.36,3.42L11.08,22.11c-3.15,1.33-5.18,4.4-5.18,7.82
		c0,3.42,2.04,6.49,5.19,7.81l8.58,3.61l0,0c0.31,0.12,0.54,0.43,0.54,0.8c0,0.22-0.08,0.42-0.23,0.57l0.02,0.02
		c-2.52,2.49-4.62,5.41-6.1,8.64c-0.4,0.87-0.75,1.76-1.06,2.67c-2.59,1.27-4.39,3.91-4.39,6.99c0,2.59,1.27,4.86,3.21,6.28
		c-0.38,5.67-4.6,10.29-10.1,11.26c-1.16,0.2-1.87,1.41-1.44,2.51c1.78,4.49,6.16,7.66,11.29,7.64c6.36-0.03,11.74-5.21,12.01-11.56
		c0.15-3.62-1.3-6.89-3.68-9.19c2.54-1.29,4.3-3.89,4.3-6.94c0-1.55-0.47-2.99-1.24-4.2c0.15-0.38,0.29-0.76,0.46-1.13
		c1.57-3.4,4.15-6.3,7.32-8.28c0.5-0.29,1.08-0.46,1.71-0.46c0.51,0,1,0.12,1.45,0.32l21.64,9.11c5.39,2.27,11.18,3.4,16.96,3.4
		c5.83,0,11.66-1.15,17.09-3.46l43.81-18.6c3.14-1.33,5.16-4.39,5.17-7.8C138.42,26.52,136.39,23.46,133.26,22.12z M85.41,46.84
		c-8.26,3.51-17.75,3.52-26.02,0.04l-11.85-4.99c-0.24-0.11-0.4-0.34-0.4-0.62c0-0.28,0.17-0.52,0.41-0.62l0-0.02l23.06-9.89
		c1.99-0.85,1.99-3.67-0.01-4.52c0,0-3.66-1.55-4.88-2.07c-1.88-0.8-4-0.8-5.88,0c-5.6,2.39-19.99,8.56-25.93,11.1
		c-0.33,0.12-0.68,0.2-1.06,0.2c-0.4,0-0.78-0.08-1.12-0.22l-10.68-4.5c-0.3-0.15-0.51-0.46-0.51-0.82c0-0.36,0.23-0.69,0.54-0.83
		l38.29-16.16c8.3-3.5,17.8-3.49,26.09,0.04l37.92,16.16c0.31,0.13,0.54,0.44,0.54,0.8c0,0.35-0.22,0.65-0.53,0.79L85.41,46.84z"/>
	<path class="st1" d="M188.52,19.79c-0.3-0.67-0.96-1.1-1.7-1.1h-10.37c-0.73,0-1.4,0.43-1.7,1.1L151,73.1
		c-0.32,0.71,0.2,1.5,0.98,1.5h10.65c0.58,0,1.11-0.35,1.33-0.89l4.59-11.09h25.96l4.59,11.09c0.22,0.54,0.75,0.89,1.33,0.89h10.96
		c0.78,0,1.3-0.8,0.98-1.51L188.52,19.79z M172.69,52.8l8.87-21.41l8.87,21.41H172.69z"/>
	<path class="st1" d="M254.28,33.75c-3.27-1.84-6.91-2.76-10.9-2.76c-5.91,0-10.41,1.86-13.5,5.59v-3.66c0-0.71-0.58-1.29-1.29-1.29
		h-9.32c-0.71,0-1.29,0.58-1.29,1.29v55.89c0,0.71,0.58,1.29,1.29,1.29h9.88c0.71,0,1.29-0.58,1.29-1.29V70.73
		c0-0.25,0.29-0.36,0.47-0.18c3.1,3.13,7.25,4.7,12.47,4.7c3.99,0,7.63-0.92,10.9-2.76c3.28-1.84,5.84-4.42,7.71-7.75
		c1.86-3.33,2.8-7.2,2.8-11.62c0-4.42-0.93-8.29-2.8-11.62C260.13,38.17,257.56,35.58,254.28,33.75z M249.09,61.78
		c-2.05,2.16-4.67,3.24-7.87,3.24c-3.19,0-5.82-1.08-7.87-3.24c-2.05-2.16-3.08-5.04-3.08-8.67c0-3.62,1.03-6.51,3.08-8.67
		c2.05-2.16,4.67-3.23,7.87-3.23c3.19,0,5.82,1.08,7.87,3.23c2.05,2.16,3.07,5.05,3.07,8.67C252.17,56.74,251.14,59.63,249.09,61.78
		z"/>
	<path class="st1" d="M307.85,33.75c-3.27-1.84-6.91-2.76-10.9-2.76c-5.91,0-10.41,1.86-13.5,5.59v-3.66c0-0.71-0.58-1.29-1.29-1.29
		h-9.32c-0.71,0-1.29,0.58-1.29,1.29v55.89c0,0.71,0.58,1.29,1.29,1.29h9.88c0.71,0,1.29-0.58,1.29-1.29V70.73
		c0-0.25,0.29-0.36,0.47-0.18c3.1,3.13,7.25,4.7,12.47,4.7c3.99,0,7.63-0.92,10.9-2.76c3.28-1.84,5.84-4.42,7.71-7.75
		c1.86-3.33,2.8-7.2,2.8-11.62c0-4.42-0.93-8.29-2.8-11.62C313.69,38.17,311.12,35.58,307.85,33.75z M302.65,61.78
		c-2.05,2.16-4.67,3.24-7.87,3.24c-3.19,0-5.82-1.08-7.87-3.24c-2.05-2.16-3.08-5.04-3.08-8.67c0-3.62,1.03-6.51,3.08-8.67
		c2.05-2.16,4.67-3.23,7.87-3.23c3.19,0,5.82,1.08,7.87,3.23c2.05,2.16,3.07,5.05,3.07,8.67C305.73,56.74,304.7,59.63,302.65,61.78z
		"/>
	<rect x="325.01" y="15.33" class="st1" width="12.46" height="59.27"/>
	<path class="st1" d="M485.02,33.83c-3.57-1.89-7.62-2.84-12.14-2.84c-4.53,0-8.59,0.95-12.18,2.84c-3.59,1.89-6.4,4.51-8.43,7.87
		c-2.02,3.35-3.04,7.16-3.04,11.42c0,4.26,1.01,8.07,3.04,11.42c2.02,3.35,4.83,5.98,8.43,7.87c3.6,1.89,7.65,2.84,12.18,2.84
		c4.53,0,8.57-0.95,12.14-2.84c3.57-1.89,6.36-4.51,8.39-7.87c2.02-3.35,3.03-7.16,3.03-11.42c0-4.26-1.01-8.07-3.03-11.42
		C491.39,38.34,488.59,35.72,485.02,33.83z M480.75,61.78c-2.05,2.16-4.67,3.24-7.87,3.24c-3.19,0-5.83-1.08-7.91-3.24
		c-2.08-2.16-3.12-5.04-3.12-8.67c0-3.62,1.04-6.51,3.12-8.67c2.08-2.16,4.71-3.23,7.91-3.23c3.2,0,5.82,1.08,7.87,3.23
		c2.05,2.16,3.07,5.05,3.07,8.67C483.83,56.74,482.8,59.63,480.75,61.78z"/>
	<path class="st1" d="M521.37,30.99c-3.46,0-6.83,0.45-10.1,1.36c-2.93,0.81-5.49,1.92-7.68,3.33c-0.44,0.28-0.57,0.86-0.34,1.32
		l3.52,6.86c0.28,0.55,0.96,0.7,1.47,0.35c1.35-0.91,2.91-1.65,4.69-2.23c2.21-0.72,4.46-1.08,6.75-1.08c3.3,0,5.78,0.73,7.43,2.2
		c1.43,1.27,2.24,3.01,2.43,5.21c0.05,0.57-0.44,1.06-1.01,1.06h-8.85c-6.28,0-10.93,1.15-13.94,3.43
		c-3.01,2.29-4.51,5.43-4.51,9.43c0,2.5,0.64,4.74,1.92,6.71c1.28,1.97,3.13,3.51,5.55,4.63c2.42,1.12,5.28,1.68,8.59,1.68
		c6.39,0,10.76-2,13.1-5.99v4.34c0,0.56,0.45,1.01,1.01,1.01h9.65c0.56,0,1.01-0.45,1.01-1.01V50.08c0-6.39-1.78-11.17-5.35-14.34
		C533.13,32.58,528.02,30.99,521.37,30.99z M529.59,59.16c0,2.55-1.33,4.9-3.52,6.22c-1.65,0.99-3.54,1.48-5.67,1.48
		c-2.18,0-3.9-0.47-5.15-1.4c-1.25-0.93-1.88-2.2-1.88-3.79c0-3.36,2.56-5.03,7.67-5.03h7.53c0.56,0,1.01,0.45,1.01,1.01V59.16z"/>
	<path class="st1" d="M560.43,37.3v-4.66c0-0.56-0.45-1.01-1.01-1.01h-9.89c-0.56,0-1.01,0.45-1.01,1.01v40.96
		c0,0.56,0.45,1.01,1.01,1.01h10.44c0.56,0,1.01-0.45,1.01-1.01V54.31c0-3.99,1.01-6.99,3.04-8.99c2.02-2,4.82-3,8.39-3
		c0.48,0,1.41,0.05,2.8,0.16v-11.5c-3.3,0-6.22,0.53-8.75,1.6C563.93,33.65,561.92,35.22,560.43,37.3z"/>
	<path class="st1" d="M625,15.33h-10.44c-0.56,0-1.01,0.45-1.01,1.01v19.84c-3.09-3.46-7.38-5.19-12.86-5.19
		c-4.05,0-7.71,0.91-10.98,2.72c-3.28,1.81-5.85,4.39-7.71,7.75c-1.87,3.35-2.8,7.24-2.8,11.66c0,4.42,0.93,8.31,2.8,11.66
		c1.86,3.36,4.43,5.94,7.71,7.75c3.27,1.81,6.94,2.72,10.98,2.72c5.86,0,10.33-1.86,13.42-5.59v3.94c0,0.56,0.45,1.01,1.01,1.01H625
		c0.56,0,1.01-0.45,1.01-1.01V16.34C626.01,15.79,625.55,15.33,625,15.33z M610.67,61.78c-2.08,2.16-4.69,3.24-7.83,3.24
		c-3.19,0-5.83-1.08-7.91-3.24c-2.08-2.16-3.12-5.04-3.12-8.67c0-3.62,1.04-6.51,3.12-8.67c2.08-2.16,4.71-3.23,7.91-3.23
		c3.14,0,5.75,1.08,7.83,3.23c2.08,2.16,3.12,5.05,3.12,8.67C613.79,56.74,612.75,59.63,610.67,61.78z"/>
	<path class="st1" d="M387.59,29.97h-9.4c-0.62,0-1.17,0.41-1.35,1l-8.42,27.99l-11.7-28.12c-0.22-0.53-0.74-0.88-1.32-0.88h-10.15
		c-0.77,0-1.29,0.8-0.98,1.5l18.44,41.44l-0.17,0.42c-0.72,1.61-1.61,3.31-3.1,4.33c-2.17,1.49-5.05,1.22-7.39,0.32
		c-0.95-0.36-1.82-0.83-2.61-1.4c-0.49-0.35-1.18-0.16-1.45,0.37l-3.88,7.55c-0.22,0.43-0.12,0.96,0.26,1.26
		c1.36,1.05,3.04,1.89,5.02,2.52c2.31,0.73,4.64,1.1,7.01,1.1c4.33,0,8.03-1.07,11.1-3.21c2.71-1.89,5.04-5,6.98-9.31
		c0.52-1.15,0.93-2.36,1.3-3.56l12.83-41.96C388.82,30.66,388.31,29.97,387.59,29.97z"/>
	<path class="st1" d="M434.64,45.89c-0.41-0.16-0.45-0.68-0.08-0.91c1.89-1.16,3.39-2.66,4.51-4.49c1.31-2.13,1.96-4.57,1.96-7.29
		c0-2.72-0.76-5.46-2.41-7.63c-3.47-4.59-9.72-6.89-18.76-6.89H396c-0.67,0-1.21,0.54-1.21,1.21v53.49c0,0.67,0.54,1.21,1.21,1.21
		h25.45c7.3,0,12.85-1.32,16.65-3.95c3.81-2.64,5.71-6.4,5.71-11.3c0-3.46-0.91-6.38-2.72-8.75
		C439.49,48.5,437.34,46.93,434.64,45.89z M407.6,29.36c0-0.58,0.47-1.04,1.04-1.04h11.77c3.73,0,6.75,3.02,6.75,6.75
		c0,3.73-3.02,6.75-6.75,6.75h-11.77c-0.58,0-1.04-0.47-1.04-1.04V29.36z M424.01,64.81h-14.98c-0.79,0-1.42-0.64-1.42-1.42V52.43
		c0-0.79,0.64-1.42,1.42-1.42h14.98c3.81,0,6.9,3.09,6.9,6.9C430.91,61.72,427.82,64.81,424.01,64.81z"/>
	<path class="st1" d="M108.34,67.89l-3.77-1.67c-1.76-0.78-3.79,0.09-4.49,1.88c-1.31,3.36-3.6,6.47-6.75,9.1
		c-5.54,4.62-12.97,7.16-20.93,7.16s-15.39-2.54-20.93-7.16c-3.2-2.66-5.5-5.83-6.81-9.25c-0.69-1.82-2.74-2.71-4.52-1.92
		l-3.75,1.66c-1.64,0.73-2.41,2.61-1.78,4.29c1.97,5.26,5.42,10.05,10.16,14c7.44,6.2,17.25,9.61,27.63,9.61
		c10.39,0,20.2-3.41,27.63-9.61c4.68-3.9,8.09-8.62,10.08-13.8C110.76,70.52,109.99,68.62,108.34,67.89z"/>
</g>
</svg>
