<svg xmlns="http://www.w3.org/2000/svg" width="48" height="49" viewBox="0 0 48 49" fill="none"><rect y="0.599976" width="48" height="48" rx="8" stroke="white"></rect><path d="M36.5583 19.6469L27.7062 15.8762C25.5134 14.9416 22.9949 14.9376 20.8001 15.8641L11.8428 19.6448C11.2056 19.9139 10.795 20.5349 10.795 21.2267C10.795 21.9185 11.2076 22.5396 11.8448 22.8066L13.5805 23.5368C13.6432 23.5611 13.6897 23.6238 13.6897 23.6987C13.6897 23.7432 13.6735 23.7836 13.6432 23.814L13.6472 23.818C13.1374 24.3217 12.7126 24.9124 12.4133 25.5658C12.3323 25.7418 12.2615 25.9218 12.1988 26.1059C11.6749 26.3628 11.3108 26.8968 11.3108 27.5199C11.3108 28.0438 11.5677 28.503 11.9601 28.7903C11.8833 29.9372 11.0296 30.8718 9.91703 31.068C9.68237 31.1085 9.53875 31.3532 9.62573 31.5758C9.9858 32.484 10.8718 33.1253 11.9096 33.1212C13.1961 33.1152 14.2844 32.0673 14.339 30.7828C14.3694 30.0505 14.0761 29.389 13.5946 28.9238C14.1084 28.6628 14.4645 28.1369 14.4645 27.5199C14.4645 27.2063 14.3694 26.9151 14.2136 26.6703C14.244 26.5934 14.2723 26.5165 14.3067 26.4417C14.6243 25.7539 15.1462 25.1673 15.7874 24.7668C15.8886 24.7081 16.0059 24.6737 16.1333 24.6737C16.2365 24.6737 16.3356 24.698 16.4266 24.7384L20.8041 26.5813C21.8945 27.0405 23.0657 27.2691 24.2349 27.2691C25.4143 27.2691 26.5936 27.0364 27.692 26.5691L36.5543 22.8066C37.1894 22.5375 37.5981 21.9185 37.6001 21.2287C37.6021 20.5369 37.1915 19.9179 36.5583 19.6469ZM26.8788 24.6474C25.2079 25.3574 23.2882 25.3595 21.6153 24.6555L19.2182 23.6461C19.1697 23.6238 19.1373 23.5773 19.1373 23.5207C19.1373 23.464 19.1717 23.4155 19.2202 23.3952V23.3912L23.885 21.3906C24.2875 21.2186 24.2875 20.6482 23.883 20.4762C23.883 20.4762 23.1426 20.1627 22.8958 20.0575C22.5155 19.8957 22.0867 19.8957 21.7064 20.0575C20.5735 20.541 17.6626 21.7891 16.461 22.3029C16.3943 22.3272 16.3235 22.3434 16.2466 22.3434C16.1657 22.3434 16.0888 22.3272 16.02 22.2988L13.8596 21.3886C13.7989 21.3582 13.7564 21.2955 13.7564 21.2227C13.7564 21.1499 13.803 21.0831 13.8657 21.0548L21.6113 17.7858C23.2903 17.0778 25.212 17.0798 26.889 17.7939L34.5597 21.0629C34.6224 21.0892 34.6689 21.1519 34.6689 21.2247C34.6689 21.2955 34.6244 21.3562 34.5617 21.3845L26.8788 24.6474Z" fill="#1E6DEB"></path><path d="M31.5171 28.9056L30.7545 28.5678C30.3984 28.41 29.9878 28.586 29.8462 28.9481C29.5812 29.6278 29.118 30.2569 28.4808 30.7889C27.3601 31.7235 25.8571 32.2373 24.2469 32.2373C22.6367 32.2373 21.1337 31.7235 20.013 30.7889C19.3657 30.2508 18.9004 29.6095 18.6354 28.9177C18.4958 28.5496 18.0811 28.3695 17.7211 28.5293L16.9625 28.8651C16.6307 29.0128 16.475 29.3931 16.6024 29.7329C17.0009 30.797 17.6988 31.7659 18.6577 32.565C20.1627 33.8192 22.1471 34.509 24.2469 34.509C26.3486 34.509 28.3331 33.8192 29.8361 32.565C30.7828 31.776 31.4726 30.8213 31.8751 29.7734C32.0066 29.4376 31.8509 29.0533 31.5171 28.9056Z" fill="#1E6DEB"></path></svg>