<svg xmlns="http://www.w3.org/2000/svg" width="34" height="34" viewBox="0 0 34 34" fill="none"><g clip-path="url(#clip0_4952_53895)"><rect x="1" y="1" width="32" height="32" rx="16" fill="white"></rect><g clip-path="url(#clip1_4952_53895)"><rect width="36.5667" height="31.7971" transform="matrix(1 0 0 -1 -1.23999 32.7974)" fill="white"></rect><rect x="-1.23999" y="1" width="9.53914" height="31.7971" fill="#E32336"></rect><rect x="25.7876" y="1" width="9.53914" height="31.7971" fill="#E32336"></rect><path d="M19.8596 20.1286C19.8407 20.0672 19.8606 20.0004 19.91 19.9594L22.874 17.4996C22.9671 17.4224 22.9433 17.2738 22.8309 17.2294L22.2714 17.0085C22.1956 16.9785 22.1547 16.8962 22.1767 16.8177L22.6811 15.0175C22.713 14.9034 22.6134 14.7957 22.4972 14.8187L20.9979 15.1147C20.9215 15.1298 20.8454 15.0873 20.8181 15.0143L20.6249 14.4964C20.5837 14.386 20.4408 14.3572 20.3601 14.4431L19.0474 15.8387C18.9405 15.9524 18.7509 15.86 18.7745 15.7057L19.2627 12.5173C19.2823 12.3889 19.1481 12.2924 19.0327 12.3519L18.36 12.6984C18.2847 12.7372 18.1927 12.711 18.1496 12.6381C17.9181 12.246 17.3118 11.227 17.0389 10.7685C16.9772 10.6648 16.8277 10.6652 16.7662 10.769C16.4954 11.2266 15.8951 12.2415 15.661 12.6398C15.6186 12.7118 15.5279 12.7388 15.453 12.7018L14.7285 12.3442C14.6132 12.2873 14.4815 12.3837 14.501 12.5109L14.9902 15.7057C15.0138 15.86 14.8242 15.9524 14.7172 15.8387L13.4046 14.4431C13.3238 14.3572 13.181 14.386 13.1398 14.4964L12.9465 15.0143C12.9193 15.0873 12.8432 15.1298 12.7668 15.1147L11.2675 14.8187C11.1512 14.7957 11.0516 14.9034 11.0836 15.0175L11.5879 16.8177C11.6099 16.8962 11.569 16.9785 11.4932 17.0085L10.9338 17.2294C10.8213 17.2738 10.7976 17.4224 10.8906 17.4996L13.8546 19.9594C13.9041 20.0004 13.924 20.0672 13.905 20.1286L13.6778 20.8658C13.6441 20.9752 13.7335 21.0833 13.8473 21.0706L16.3522 20.7914C16.4464 20.7809 16.5288 20.8546 16.5288 20.9494V23.0989C16.5288 23.1867 16.6 23.2579 16.6878 23.2579H17.0769C17.1647 23.2579 17.2359 23.1867 17.2359 23.0989V20.9494C17.2359 20.8546 17.3183 20.7809 17.4125 20.7914L19.9173 21.0706C20.0311 21.0833 20.1206 20.9752 20.0869 20.8658L19.8596 20.1286Z" fill="#E32336"></path></g></g><rect x="0.5" y="0.5" width="33" height="33" rx="16.5" stroke="#E6EFFF"></rect><defs><clipPath id="clip0_4952_53895"><rect x="1" y="1" width="32" height="32" rx="16" fill="white"></rect></clipPath><clipPath id="clip1_4952_53895"><rect width="36.5667" height="31.7971" fill="white" transform="translate(-1.23999 1)"></rect></clipPath></defs></svg>